<?xml version="1.0" encoding="us-ascii" standalone="no"?><svg xmlns="http://www.w3.org/2000/svg" xmlns:xlink="http://www.w3.org/1999/xlink" contentStyleType="text/css" height="774px" preserveAspectRatio="none" style="width:953px;height:774px;background:#FFFFFF;" version="1.1" viewBox="0 0 953 774" width="953px" zoomAndPan="magnify"><defs/><g><!--class Game--><g id="elem_Game"><rect codeLine="1" fill="#F1F1F1" height="372.1546" id="Game" rx="2.5" ry="2.5" style="stroke:#181818;stroke-width:0.5;" width="410" x="9" y="287"/><ellipse cx="190.25" cy="303" fill="#ADD1B2" rx="11" ry="11" style="stroke:#181818;stroke-width:1.0;"/><path d="M189.7188,309.9219 Q187.9688,309.9219 186.8281,309.1875 Q185.7031,308.4375 185.1406,307.0938 Q184.5938,305.7344 184.5938,303.9375 Q184.5938,301.9063 185.25,300.4531 Q185.9063,299 187.1875,298.2188 Q188.4688,297.4375 190.3438,297.4375 Q191.2344,297.4375 191.9063,297.625 Q192.5781,297.7969 193.2656,298.1406 L192.4531,300.1563 Q191.8281,299.8438 191.2813,299.7188 Q190.75,299.5938 190.2656,299.5938 Q189.0938,299.5938 188.3906,300.125 Q187.6875,300.6563 187.3906,301.6094 Q187.0938,302.5625 187.0938,303.8281 Q187.0938,305.8438 187.8125,306.8125 Q188.5313,307.7656 190.125,307.7656 Q190.7188,307.7656 191.3438,307.6094 Q191.9688,307.4531 192.7969,307.0781 L192.7969,309.2969 Q192.0625,309.6094 191.2656,309.7656 Q190.4844,309.9219 189.7188,309.9219 Z " fill="#000000"/><text fill="#000000" font-family="sans-serif" font-size="14" lengthAdjust="spacing" textLength="39" x="210.75" y="308.432">Game</text><line style="stroke:#181818;stroke-width:0.5;" x1="10" x2="418" y1="319" y2="319"/><rect fill="none" height="6" style="stroke:#C82930;stroke-width:1.0;" width="6" x="17" y="331.034"/><text fill="#000000" font-family="sans-serif" font-size="14" lengthAdjust="spacing" textLength="170" x="29" y="337.9659">activeLetterIndex : int = 0</text><rect fill="none" height="6" style="stroke:#C82930;stroke-width:1.0;" width="6" x="17" y="350.1019"/><text fill="#000000" font-family="sans-serif" font-size="14" lengthAdjust="spacing" textLength="215" x="29" y="357.0339">&#171;const&#187; moveSpeed : float = 0.1f</text><rect fill="none" height="6" style="stroke:#C82930;stroke-width:1.0;" width="6" x="17" y="369.1698"/><text fill="#000000" font-family="sans-serif" font-size="14" lengthAdjust="spacing" textLength="232" x="29" y="376.1018">&#171;const&#187; rotationSpeed : float = 1.5f</text><rect fill="none" height="6" style="stroke:#C82930;stroke-width:1.0;" width="6" x="17" y="388.2377"/><text fill="#000000" font-family="sans-serif" font-size="14" lengthAdjust="spacing" textLength="151" x="29" y="395.1697">showAxes : bool = true</text><rect fill="none" height="6" style="stroke:#C82930;stroke-width:1.0;" width="6" x="17" y="407.3056"/><text fill="#000000" font-family="sans-serif" font-size="14" lengthAdjust="spacing" textLength="153" x="29" y="414.2376">showGrid : bool = false</text><rect fill="none" height="6" style="stroke:#C82930;stroke-width:1.0;" width="6" x="17" y="426.3735"/><text fill="#000000" font-family="sans-serif" font-size="14" lengthAdjust="spacing" textLength="148" x="29" y="433.3055">lineWidth : float = 1.5f</text><rect fill="none" height="6" style="stroke:#C82930;stroke-width:1.0;" width="6" x="17" y="445.4415"/><text fill="#000000" font-family="sans-serif" font-size="14" lengthAdjust="spacing" textLength="173" x="29" y="452.3734">axisRotationX : float = 0.0f</text><rect fill="none" height="6" style="stroke:#C82930;stroke-width:1.0;" width="6" x="17" y="464.5094"/><text fill="#000000" font-family="sans-serif" font-size="14" lengthAdjust="spacing" textLength="173" x="29" y="471.4414">axisRotationY : float = 0.0f</text><rect fill="none" height="6" style="stroke:#C82930;stroke-width:1.0;" width="6" x="17" y="483.5773"/><text fill="#000000" font-family="sans-serif" font-size="14" lengthAdjust="spacing" textLength="226" x="29" y="490.5093">axisRotationEnabled : bool = false</text><line style="stroke:#181818;stroke-width:0.5;" x1="10" x2="418" y1="498.6113" y2="498.6113"/><ellipse cx="20" cy="513.6452" fill="#84BE84" rx="3" ry="3" style="stroke:#038048;stroke-width:1.0;"/><text fill="#000000" font-family="sans-serif" font-size="14" lengthAdjust="spacing" textLength="259" x="29" y="517.5772">Game(width:int, height:int, title:string)</text><polygon fill="#FFFF44" points="20,527.7131,24,531.7131,20,535.7131,16,531.7131" style="stroke:#B38D22;stroke-width:1.0;"/><text fill="#000000" font-family="sans-serif" font-size="14" lengthAdjust="spacing" textLength="254" x="29" y="536.6451">&#171;override&#187; OnLoad(e:EventArgs) : void</text><polygon fill="#FFFF44" points="20,546.781,24,550.781,20,554.781,16,550.781" style="stroke:#B38D22;stroke-width:1.0;"/><text fill="#000000" font-family="sans-serif" font-size="14" lengthAdjust="spacing" textLength="355" x="29" y="555.713">&#171;override&#187; OnRenderFrame(e:FrameEventArgs) : void</text><rect fill="#F24D5C" height="6" style="stroke:#C82930;stroke-width:1.0;" width="6" x="17" y="567.849"/><text fill="#000000" font-family="sans-serif" font-size="14" lengthAdjust="spacing" textLength="114" x="29" y="574.7809">DrawAxes() : void</text><rect fill="#F24D5C" height="6" style="stroke:#C82930;stroke-width:1.0;" width="6" x="17" y="586.9169"/><text fill="#000000" font-family="sans-serif" font-size="14" lengthAdjust="spacing" textLength="112" x="29" y="593.8489">DrawGrid() : void</text><rect fill="#F24D5C" height="6" style="stroke:#C82930;stroke-width:1.0;" width="6" x="17" y="605.9848"/><text fill="#000000" font-family="sans-serif" font-size="14" lengthAdjust="spacing" textLength="384" x="29" y="612.9168">DrawText(position:Vector3, text:string, color:Color4) : void</text><polygon fill="#FFFF44" points="20,623.0527,24,627.0527,20,631.0527,16,627.0527" style="stroke:#B38D22;stroke-width:1.0;"/><text fill="#000000" font-family="sans-serif" font-size="14" lengthAdjust="spacing" textLength="265" x="29" y="631.9847">&#171;override&#187; OnResize(e:EventArgs) : void</text><polygon fill="#FFFF44" points="20,642.1206,24,646.1206,20,650.1206,16,646.1206" style="stroke:#B38D22;stroke-width:1.0;"/><text fill="#000000" font-family="sans-serif" font-size="14" lengthAdjust="spacing" textLength="355" x="29" y="651.0526">&#171;override&#187; OnUpdateFrame(e:FrameEventArgs) : void</text></g><!--class LetterU--><g id="elem_LetterU"><rect codeLine="20" fill="#F1F1F1" height="219.6113" id="LetterU" rx="2.5" ry="2.5" style="stroke:#181818;stroke-width:0.5;" width="228" x="491" y="7"/><ellipse cx="576.25" cy="23" fill="#ADD1B2" rx="11" ry="11" style="stroke:#181818;stroke-width:1.0;"/><path d="M575.7188,29.9219 Q573.9688,29.9219 572.8281,29.1875 Q571.7031,28.4375 571.1406,27.0938 Q570.5938,25.7344 570.5938,23.9375 Q570.5938,21.9063 571.25,20.4531 Q571.9063,19 573.1875,18.2188 Q574.4688,17.4375 576.3438,17.4375 Q577.2344,17.4375 577.9063,17.625 Q578.5781,17.7969 579.2656,18.1406 L578.4531,20.1563 Q577.8281,19.8438 577.2813,19.7188 Q576.75,19.5938 576.2656,19.5938 Q575.0938,19.5938 574.3906,20.125 Q573.6875,20.6563 573.3906,21.6094 Q573.0938,22.5625 573.0938,23.8281 Q573.0938,25.8438 573.8125,26.8125 Q574.5313,27.7656 576.125,27.7656 Q576.7188,27.7656 577.3438,27.6094 Q577.9688,27.4531 578.7969,27.0781 L578.7969,29.2969 Q578.0625,29.6094 577.2656,29.7656 Q576.4844,29.9219 575.7188,29.9219 Z " fill="#000000"/><text fill="#000000" font-family="sans-serif" font-size="14" lengthAdjust="spacing" textLength="49" x="596.75" y="28.432">LetterU</text><line style="stroke:#181818;stroke-width:0.5;" x1="492" x2="718" y1="39" y2="39"/><ellipse cx="502" cy="54.034" fill="none" rx="3" ry="3" style="stroke:#038048;stroke-width:1.0;"/><text fill="#000000" font-family="sans-serif" font-size="14" lengthAdjust="spacing" textLength="184" x="511" y="57.9659">RotationX : float &#171;get&#187; &#171;set&#187;</text><ellipse cx="502" cy="73.1019" fill="none" rx="3" ry="3" style="stroke:#038048;stroke-width:1.0;"/><text fill="#000000" font-family="sans-serif" font-size="14" lengthAdjust="spacing" textLength="184" x="511" y="77.0339">RotationY : float &#171;get&#187; &#171;set&#187;</text><ellipse cx="502" cy="92.1698" fill="none" rx="3" ry="3" style="stroke:#038048;stroke-width:1.0;"/><text fill="#000000" font-family="sans-serif" font-size="14" lengthAdjust="spacing" textLength="184" x="511" y="96.1018">RotationZ : float &#171;get&#187; &#171;set&#187;</text><rect fill="none" height="6" style="stroke:#C82930;stroke-width:1.0;" width="6" x="499" y="108.2377"/><text fill="#000000" font-family="sans-serif" font-size="14" lengthAdjust="spacing" textLength="146" x="511" y="115.1697">thickness : float = 0.2f</text><rect fill="none" height="6" style="stroke:#C82930;stroke-width:1.0;" width="6" x="499" y="127.3056"/><text fill="#000000" font-family="sans-serif" font-size="14" lengthAdjust="spacing" textLength="121" x="511" y="134.2376">width : float = 1.0f</text><rect fill="none" height="6" style="stroke:#C82930;stroke-width:1.0;" width="6" x="499" y="146.3735"/><text fill="#000000" font-family="sans-serif" font-size="14" lengthAdjust="spacing" textLength="127" x="511" y="153.3055">height : float = 1.5f</text><rect fill="none" height="6" style="stroke:#C82930;stroke-width:1.0;" width="6" x="499" y="165.4415"/><text fill="#000000" font-family="sans-serif" font-size="14" lengthAdjust="spacing" textLength="123" x="511" y="172.3734">depth : float = 0.4f</text><line style="stroke:#181818;stroke-width:0.5;" x1="492" x2="718" y1="180.4754" y2="180.4754"/><ellipse cx="502" cy="195.5094" fill="#84BE84" rx="3" ry="3" style="stroke:#038048;stroke-width:1.0;"/><text fill="#000000" font-family="sans-serif" font-size="14" lengthAdjust="spacing" textLength="202" x="511" y="199.4414">LetterU(initialPosition:Vector3)</text><ellipse cx="502" cy="214.5773" fill="#84BE84" rx="3" ry="3" style="stroke:#038048;stroke-width:1.0;"/><text fill="#000000" font-family="sans-serif" font-size="14" lengthAdjust="spacing" textLength="83" x="511" y="218.5093">Draw() : void</text></g><!--class Program--><g id="elem_Program"><rect codeLine="31" fill="#F1F1F1" height="67.0679" id="Program" rx="2.5" ry="2.5" style="stroke:#181818;stroke-width:0.5;" width="192" x="754" y="83.5"/><ellipse cx="816.75" cy="99.5" fill="#ADD1B2" rx="11" ry="11" style="stroke:#181818;stroke-width:1.0;"/><path d="M816.2188,106.4219 Q814.4688,106.4219 813.3281,105.6875 Q812.2031,104.9375 811.6406,103.5938 Q811.0938,102.2344 811.0938,100.4375 Q811.0938,98.4063 811.75,96.9531 Q812.4063,95.5 813.6875,94.7188 Q814.9688,93.9375 816.8438,93.9375 Q817.7344,93.9375 818.4063,94.125 Q819.0781,94.2969 819.7656,94.6406 L818.9531,96.6563 Q818.3281,96.3438 817.7813,96.2188 Q817.25,96.0938 816.7656,96.0938 Q815.5938,96.0938 814.8906,96.625 Q814.1875,97.1563 813.8906,98.1094 Q813.5938,99.0625 813.5938,100.3281 Q813.5938,102.3438 814.3125,103.3125 Q815.0313,104.2656 816.625,104.2656 Q817.2188,104.2656 817.8438,104.1094 Q818.4688,103.9531 819.2969,103.5781 L819.2969,105.7969 Q818.5625,106.1094 817.7656,106.2656 Q816.9844,106.4219 816.2188,106.4219 Z " fill="#000000"/><text fill="#000000" font-family="sans-serif" font-size="14" lengthAdjust="spacing" textLength="58" x="837.25" y="104.932">Program</text><line style="stroke:#181818;stroke-width:0.5;" x1="755" x2="945" y1="115.5" y2="115.5"/><line style="stroke:#181818;stroke-width:0.5;" x1="755" x2="945" y1="123.5" y2="123.5"/><rect fill="#F24D5C" height="6" style="stroke:#C82930;stroke-width:1.0;" width="6" x="762" y="135.534"/><text fill="#000000" font-family="sans-serif" font-size="14" lengthAdjust="spacing" text-decoration="underline" textLength="166" x="774" y="142.4659">Main(args:string[]) : void</text></g><!--class List`1--><g id="elem_List`1"><rect codeLine="34" fill="#F1F1F1" height="48" id="List`1" rx="2.5" ry="2.5" style="stroke:#181818;stroke-width:0.5;" width="77" x="106.5" y="719"/><ellipse cx="121.5" cy="735" fill="#ADD1B2" rx="11" ry="11" style="stroke:#181818;stroke-width:1.0;"/><path d="M120.9688,741.9219 Q119.2188,741.9219 118.0781,741.1875 Q116.9531,740.4375 116.3906,739.0938 Q115.8438,737.7344 115.8438,735.9375 Q115.8438,733.9063 116.5,732.4531 Q117.1563,731 118.4375,730.2188 Q119.7188,729.4375 121.5938,729.4375 Q122.4844,729.4375 123.1563,729.625 Q123.8281,729.7969 124.5156,730.1406 L123.7031,732.1563 Q123.0781,731.8438 122.5313,731.7188 Q122,731.5938 121.5156,731.5938 Q120.3438,731.5938 119.6406,732.125 Q118.9375,732.6563 118.6406,733.6094 Q118.3438,734.5625 118.3438,735.8281 Q118.3438,737.8438 119.0625,738.8125 Q119.7813,739.7656 121.375,739.7656 Q121.9688,739.7656 122.5938,739.6094 Q123.2188,739.4531 124.0469,739.0781 L124.0469,741.2969 Q123.3125,741.6094 122.5156,741.7656 Q121.7344,741.9219 120.9688,741.9219 Z " fill="#000000"/><text fill="#000000" font-family="sans-serif" font-size="14" lengthAdjust="spacing" textLength="35" x="135.5" y="740.432">List`1</text><rect fill="#FFFFFF" height="18.3441" style="stroke:#181818;stroke-width:1.0;stroke-dasharray:2.0,2.0;" width="8" x="178.5" y="716"/><text fill="#000000" font-family="sans-serif" font-size="12" font-style="italic" lengthAdjust="spacing" textLength="6" x="179.5" y="729.8281">T</text><line style="stroke:#181818;stroke-width:0.5;" x1="107.5" x2="182.5" y1="751" y2="751"/><line style="stroke:#181818;stroke-width:0.5;" x1="107.5" x2="182.5" y1="759" y2="759"/></g><!--class GameWindow--><g id="elem_GameWindow"><rect fill="#F1F1F1" height="48" id="GameWindow" rx="2.5" ry="2.5" style="stroke:#181818;stroke-width:0.5;" width="125" x="151.5" y="93"/><ellipse cx="166.5" cy="109" fill="#ADD1B2" rx="11" ry="11" style="stroke:#181818;stroke-width:1.0;"/><path d="M165.9688,115.9219 Q164.2188,115.9219 163.0781,115.1875 Q161.9531,114.4375 161.3906,113.0938 Q160.8438,111.7344 160.8438,109.9375 Q160.8438,107.9063 161.5,106.4531 Q162.1563,105 163.4375,104.2188 Q164.7188,103.4375 166.5938,103.4375 Q167.4844,103.4375 168.1563,103.625 Q168.8281,103.7969 169.5156,104.1406 L168.7031,106.1563 Q168.0781,105.8438 167.5313,105.7188 Q167,105.5938 166.5156,105.5938 Q165.3438,105.5938 164.6406,106.125 Q163.9375,106.6563 163.6406,107.6094 Q163.3438,108.5625 163.3438,109.8281 Q163.3438,111.8438 164.0625,112.8125 Q164.7813,113.7656 166.375,113.7656 Q166.9688,113.7656 167.5938,113.6094 Q168.2188,113.4531 169.0469,113.0781 L169.0469,115.2969 Q168.3125,115.6094 167.5156,115.7656 Q166.7344,115.9219 165.9688,115.9219 Z " fill="#000000"/><text fill="#000000" font-family="sans-serif" font-size="14" lengthAdjust="spacing" textLength="93" x="180.5" y="114.432">GameWindow</text><line style="stroke:#181818;stroke-width:0.5;" x1="152.5" x2="275.5" y1="125" y2="125"/><line style="stroke:#181818;stroke-width:0.5;" x1="152.5" x2="275.5" y1="133" y2="133"/></g><!--class Color4--><g id="elem_Color4"><rect fill="#F1F1F1" height="48" id="Color4" rx="2.5" ry="2.5" style="stroke:#181818;stroke-width:0.5;" width="75" x="453.5" y="449"/><ellipse cx="468.5" cy="465" fill="#ADD1B2" rx="11" ry="11" style="stroke:#181818;stroke-width:1.0;"/><path d="M467.9688,471.9219 Q466.2188,471.9219 465.0781,471.1875 Q463.9531,470.4375 463.3906,469.0938 Q462.8438,467.7344 462.8438,465.9375 Q462.8438,463.9063 463.5,462.4531 Q464.1563,461 465.4375,460.2188 Q466.7188,459.4375 468.5938,459.4375 Q469.4844,459.4375 470.1563,459.625 Q470.8281,459.7969 471.5156,460.1406 L470.7031,462.1563 Q470.0781,461.8438 469.5313,461.7188 Q469,461.5938 468.5156,461.5938 Q467.3438,461.5938 466.6406,462.125 Q465.9375,462.6563 465.6406,463.6094 Q465.3438,464.5625 465.3438,465.8281 Q465.3438,467.8438 466.0625,468.8125 Q466.7813,469.7656 468.375,469.7656 Q468.9688,469.7656 469.5938,469.6094 Q470.2188,469.4531 471.0469,469.0781 L471.0469,471.2969 Q470.3125,471.6094 469.5156,471.7656 Q468.7344,471.9219 467.9688,471.9219 Z " fill="#000000"/><text fill="#000000" font-family="sans-serif" font-size="14" lengthAdjust="spacing" textLength="43" x="482.5" y="470.432">Color4</text><line style="stroke:#181818;stroke-width:0.5;" x1="454.5" x2="527.5" y1="481" y2="481"/><line style="stroke:#181818;stroke-width:0.5;" x1="454.5" x2="527.5" y1="489" y2="489"/></g><!--class KeyboardState--><g id="elem_KeyboardState"><rect fill="#F1F1F1" height="48" id="KeyboardState" rx="2.5" ry="2.5" style="stroke:#181818;stroke-width:0.5;" width="130" x="219" y="719"/><ellipse cx="234" cy="735" fill="#ADD1B2" rx="11" ry="11" style="stroke:#181818;stroke-width:1.0;"/><path d="M233.4688,741.9219 Q231.7188,741.9219 230.5781,741.1875 Q229.4531,740.4375 228.8906,739.0938 Q228.3438,737.7344 228.3438,735.9375 Q228.3438,733.9063 229,732.4531 Q229.6563,731 230.9375,730.2188 Q232.2188,729.4375 234.0938,729.4375 Q234.9844,729.4375 235.6563,729.625 Q236.3281,729.7969 237.0156,730.1406 L236.2031,732.1563 Q235.5781,731.8438 235.0313,731.7188 Q234.5,731.5938 234.0156,731.5938 Q232.8438,731.5938 232.1406,732.125 Q231.4375,732.6563 231.1406,733.6094 Q230.8438,734.5625 230.8438,735.8281 Q230.8438,737.8438 231.5625,738.8125 Q232.2813,739.7656 233.875,739.7656 Q234.4688,739.7656 235.0938,739.6094 Q235.7188,739.4531 236.5469,739.0781 L236.5469,741.2969 Q235.8125,741.6094 235.0156,741.7656 Q234.2344,741.9219 233.4688,741.9219 Z " fill="#000000"/><text fill="#000000" font-family="sans-serif" font-size="14" lengthAdjust="spacing" textLength="98" x="248" y="740.432">KeyboardState</text><line style="stroke:#181818;stroke-width:0.5;" x1="220" x2="348" y1="751" y2="751"/><line style="stroke:#181818;stroke-width:0.5;" x1="220" x2="348" y1="759" y2="759"/></g><!--class Vector3--><g id="elem_Vector3"><rect fill="#F1F1F1" height="48" id="Vector3" rx="2.5" ry="2.5" style="stroke:#181818;stroke-width:0.5;" width="82" x="564" y="449"/><ellipse cx="579" cy="465" fill="#ADD1B2" rx="11" ry="11" style="stroke:#181818;stroke-width:1.0;"/><path d="M578.4688,471.9219 Q576.7188,471.9219 575.5781,471.1875 Q574.4531,470.4375 573.8906,469.0938 Q573.3438,467.7344 573.3438,465.9375 Q573.3438,463.9063 574,462.4531 Q574.6563,461 575.9375,460.2188 Q577.2188,459.4375 579.0938,459.4375 Q579.9844,459.4375 580.6563,459.625 Q581.3281,459.7969 582.0156,460.1406 L581.2031,462.1563 Q580.5781,461.8438 580.0313,461.7188 Q579.5,461.5938 579.0156,461.5938 Q577.8438,461.5938 577.1406,462.125 Q576.4375,462.6563 576.1406,463.6094 Q575.8438,464.5625 575.8438,465.8281 Q575.8438,467.8438 576.5625,468.8125 Q577.2813,469.7656 578.875,469.7656 Q579.4688,469.7656 580.0938,469.6094 Q580.7188,469.4531 581.5469,469.0781 L581.5469,471.2969 Q580.8125,471.6094 580.0156,471.7656 Q579.2344,471.9219 578.4688,471.9219 Z " fill="#000000"/><text fill="#000000" font-family="sans-serif" font-size="14" lengthAdjust="spacing" textLength="50" x="593" y="470.432">Vector3</text><line style="stroke:#181818;stroke-width:0.5;" x1="565" x2="645" y1="481" y2="481"/><line style="stroke:#181818;stroke-width:0.5;" x1="565" x2="645" y1="489" y2="489"/></g><!--reverse link GameWindow to Game--><g id="link_GameWindow_Game"><path codeLine="36" d="M214,161.51 C214,193.62 214,239.72 214,286.61 " fill="none" id="GameWindow-backto-Game" style="stroke:#181818;stroke-width:1.0;"/><polygon fill="none" points="207,161.23,214,141.23,221,161.23,207,161.23" style="stroke:#181818;stroke-width:1.0;"/></g><!--link Game to List`1--><g id="link_Game_List`1"><path codeLine="37" d="M166.36,659.04 C160.93,680.12 156.02,699.21 152.27,713.76 " fill="none" id="Game-to-List`1" style="stroke:#181818;stroke-width:1.0;"/><polygon fill="#181818" points="150.95,718.9,157.0617,711.1768,152.1929,714.0569,149.3128,709.1882,150.95,718.9" style="stroke:#181818;stroke-width:1.0;"/><text fill="#000000" font-family="sans-serif" font-size="13" lengthAdjust="spacing" textLength="98" x="41.3803" y="707.1306">letters&lt;LetterU&gt;</text></g><!--link Game to Color4--><g id="link_Game_Color4"><path codeLine="38" d="M428.1,570.93 C442.73,554.85 457.36,534.09 472,508.66 " fill="none" id="Game-Color4" style="stroke:#181818;stroke-width:1.0;"/><polygon fill="none" points="419.04,580.3,426.0871,578.7706,427.3857,571.6774,420.3387,573.2068,419.04,580.3" style="stroke:#181818;stroke-width:1.0;"/><polygon fill="#181818" points="478.49,497.06,470.6062,502.963,476.0497,501.424,477.5886,506.8675,478.49,497.06" style="stroke:#181818;stroke-width:1.0;"/><line style="stroke:#181818;stroke-width:1.0;" x1="476.0497" x2="472.14" y1="501.424" y2="508.4"/><text fill="#000000" font-family="sans-serif" font-size="13" lengthAdjust="spacing" textLength="105" x="488.2376" y="518.9796">backgroundColor</text></g><!--link Game to Color4--><g id="link_Game_Color4"><path codeLine="39" d="M428.1,375.07 C442.73,391.15 457.36,411.91 472,437.34 " fill="none" id="Game-Color4-1" style="stroke:#181818;stroke-width:1.0;"/><polygon fill="none" points="419.04,365.7,420.3387,372.7932,427.3857,374.3226,426.0871,367.2294,419.04,365.7" style="stroke:#181818;stroke-width:1.0;"/><polygon fill="#181818" points="478.49,448.94,477.5886,439.1325,476.0497,444.576,470.6062,443.037,478.49,448.94" style="stroke:#181818;stroke-width:1.0;"/><line style="stroke:#181818;stroke-width:1.0;" x1="476.0497" x2="472.14" y1="444.576" y2="437.6"/><text fill="#000000" font-family="sans-serif" font-size="13" lengthAdjust="spacing" textLength="53" x="417.8294" y="437.2671">lineColor</text></g><!--link Game to KeyboardState--><g id="link_Game_KeyboardState"><path codeLine="40" d="M262.33,659.04 C267.84,680.12 272.82,699.21 276.62,713.76 " fill="none" id="Game-to-KeyboardState" style="stroke:#181818;stroke-width:1.0;"/><polygon fill="#181818" points="277.97,718.9,279.5535,709.1793,276.7003,714.0639,271.8157,711.2107,277.97,718.9" style="stroke:#181818;stroke-width:1.0;"/><text fill="#000000" font-family="sans-serif" font-size="13" lengthAdjust="spacing" textLength="105" x="190.3935" y="707.1612">previousKeyState</text></g><!--link LetterU to Vector3--><g id="link_LetterU_Vector3"><path codeLine="41" d="M605,227.1 C605,302.41 605,397.05 605,443.55 " fill="none" id="LetterU-to-Vector3" style="stroke:#181818;stroke-width:1.0;"/><polygon fill="#181818" points="605,448.71,609,439.71,605,443.71,601,439.71,605,448.71" style="stroke:#181818;stroke-width:1.0;"/><text fill="#000000" font-family="sans-serif" font-size="13" lengthAdjust="spacing" textLength="49" x="549.7219" y="437.295">Position</text></g><!--SRC=[ZPDVRzCm5CNV-ockmakgBLKBuoKAaIOO4wA8QNyP20atlasiUNPaksbXzBlFTfsnDX5T7vh4z-VuddDF2awqXbDoZ_0m0FjBW1I6DJX5Or1z4XHNa08J1jx1E11PLaYXJPx3lMpmeaQabfbpIJmrcimxe9A662R5BZmPlMrXNSdbyGgrhSwavBPer0AV5KyLe_-ASy9rM-LCu0sZfkf_CranVHuQ-BRLwRWFkTsFd0WouzZRpO5tCrwwTbBhso5KoChAREuDCnnJRHGJvT3phwnBraLbnQ4rwgkOIa9ZJ4yQ5EPObNfeJsaae_tqETeHgO_AdOcfl_RlJE238jxWk6VTUTktVeah4zTICwSwlSR2IFN6oh3BGSKX599BbRvt_qVxcjNi3xvSt5LDYS4zujQ3meTuazYhaEC3w4uyoqfqOSmoxQuxtEqBkU__vH8m5Ilk16gz5QFNROoMdPm-9MmJbFuCKwotjer7H_FGM10UCs6dHFZPphI60NFZZ3kkdIbPMb-3Qm_QQIpMzi0lX8cOMAF3d7_yxEoDfaoRNvCekypj_lN01V-62IgNaFrD4lyX-4L8aXmYxllKMUWtZvvUi86aWsQak2kLN0Zg0nN19bVF2FUnzzJy4RN2Xic5_eo_BwmIZC3UpIHHr3yEsenuk3KgWk3K8m00]--></g></svg>