<svg xmlns="http://www.w3.org/2000/svg" xmlns:xlink="http://www.w3.org/1999/xlink" contentStyleType="text/css" data-diagram-type="CLASS" height="701px" preserveAspectRatio="none" style="width:1000px;height:701px;background:#FFFFFF;" version="1.1" viewBox="0 0 1000 701" width="1000px" zoomAndPan="magnify"><defs/><g><!--class Game--><g class="entity" data-entity="Game" data-source-line="1" data-uid="ent0002" id="entity_Game"><rect fill="#F1F1F1" height="325.0469" rx="2.5" ry="2.5" style="stroke:#181818;stroke-width:0.5;" width="437.6807" x="9" y="261.67"/><ellipse cx="202.751" cy="277.67" fill="#ADD1B2" rx="11" ry="11" style="stroke:#181818;stroke-width:1;"/><path d="M205.7197,283.3106 Q205.1416,283.6075 204.501,283.7481 Q203.8604,283.9044 203.1572,283.9044 Q200.6572,283.9044 199.3291,282.2638 Q198.0166,280.6075 198.0166,277.4825 Q198.0166,274.3575 199.3291,272.7013 Q200.6572,271.045 203.1572,271.045 Q203.8604,271.045 204.501,271.2013 Q205.1572,271.3575 205.7197,271.6544 L205.7197,274.3731 Q205.0947,273.795 204.501,273.5294 Q203.9072,273.2481 203.2822,273.2481 Q201.9385,273.2481 201.251,274.3263 Q200.5635,275.3888 200.5635,277.4825 Q200.5635,279.5763 201.251,280.6544 Q201.9385,281.7169 203.2822,281.7169 Q203.9072,281.7169 204.501,281.4513 Q205.0947,281.17 205.7197,280.5919 L205.7197,283.3106 Z " fill="#000000"/><text fill="#000000" font-family="sans-serif" font-size="14" lengthAdjust="spacing" textLength="41.6787" x="223.251" y="282.5167">Game</text><line style="stroke:#181818;stroke-width:0.5;" x1="10" x2="445.6807" y1="293.67" y2="293.67"/><rect fill="none" height="6" style="stroke:#C82930;stroke-width:1;" width="6" x="17" y="304.3184"/><text fill="#000000" font-family="sans-serif" font-size="14" lengthAdjust="spacing" textLength="184.5088" x="29" y="310.6651">activeLetterIndex : int = 0</text><rect fill="none" height="6" style="stroke:#C82930;stroke-width:1;" width="6" x="17" y="320.6153"/><text fill="#000000" font-family="sans-serif" font-size="14" lengthAdjust="spacing" textLength="235.3818" x="29" y="326.962">&#171;const&#187; moveSpeed : float = 0.1f</text><rect fill="none" height="6" style="stroke:#C82930;stroke-width:1;" width="6" x="17" y="336.9122"/><text fill="#000000" font-family="sans-serif" font-size="14" lengthAdjust="spacing" textLength="251.4873" x="29" y="343.2589">&#171;const&#187; rotationSpeed : float = 1.5f</text><rect fill="none" height="6" style="stroke:#C82930;stroke-width:1;" width="6" x="17" y="353.2091"/><text fill="#000000" font-family="sans-serif" font-size="14" lengthAdjust="spacing" textLength="162.8389" x="29" y="359.5557">showAxes : bool = true</text><rect fill="none" height="6" style="stroke:#C82930;stroke-width:1;" width="6" x="17" y="369.5059"/><text fill="#000000" font-family="sans-serif" font-size="14" lengthAdjust="spacing" textLength="163.0234" x="29" y="375.8526">showGrid : bool = false</text><rect fill="none" height="6" style="stroke:#C82930;stroke-width:1;" width="6" x="17" y="385.8028"/><text fill="#000000" font-family="sans-serif" font-size="14" lengthAdjust="spacing" textLength="159.1406" x="29" y="392.1495">lineWidth : float = 1.5f</text><rect fill="none" height="6" style="stroke:#C82930;stroke-width:1;" width="6" x="17" y="402.0997"/><text fill="#000000" font-family="sans-serif" font-size="14" lengthAdjust="spacing" textLength="189.7109" x="29" y="408.4464">axisRotationX : float = 0.0f</text><rect fill="none" height="6" style="stroke:#C82930;stroke-width:1;" width="6" x="17" y="418.3966"/><text fill="#000000" font-family="sans-serif" font-size="14" lengthAdjust="spacing" textLength="188.6719" x="29" y="424.7432">axisRotationY : float = 0.0f</text><rect fill="none" height="6" style="stroke:#C82930;stroke-width:1;" width="6" x="17" y="434.6934"/><text fill="#000000" font-family="sans-serif" font-size="14" lengthAdjust="spacing" textLength="241.2607" x="29" y="441.0401">axisRotationEnabled : bool = false</text><line style="stroke:#181818;stroke-width:0.5;" x1="10" x2="445.6807" y1="448.3419" y2="448.3419"/><ellipse cx="20" cy="461.9903" fill="#84BE84" rx="3" ry="3" style="stroke:#038048;stroke-width:1;"/><text fill="#000000" font-family="sans-serif" font-size="14" lengthAdjust="spacing" textLength="271.8311" x="29" y="465.337">Game(width:int, height:int, title:string)</text><polygon fill="#FFFF44" points="20,473.2872,24,477.2872,20,481.2872,16,477.2872" style="stroke:#B38D22;stroke-width:1;"/><text fill="#000000" font-family="sans-serif" font-size="14" lengthAdjust="spacing" textLength="272.7881" x="29" y="481.6339">&#171;override&#187; OnLoad(e:EventArgs) : void</text><polygon fill="#FFFF44" points="20,489.5841,24,493.5841,20,497.5841,16,493.5841" style="stroke:#B38D22;stroke-width:1;"/><text fill="#000000" font-family="sans-serif" font-size="14" lengthAdjust="spacing" textLength="378.7041" x="29" y="497.9307">&#171;override&#187; OnRenderFrame(e:FrameEventArgs) : void</text><rect fill="#F24D5C" height="6" style="stroke:#C82930;stroke-width:1;" width="6" x="17" y="507.8809"/><text fill="#000000" font-family="sans-serif" font-size="14" lengthAdjust="spacing" textLength="124.5029" x="29" y="514.2276">DrawAxes() : void</text><rect fill="#F24D5C" height="6" style="stroke:#C82930;stroke-width:1;" width="6" x="17" y="524.1778"/><text fill="#000000" font-family="sans-serif" font-size="14" lengthAdjust="spacing" textLength="120.1143" x="29" y="530.5245">DrawGrid() : void</text><rect fill="#F24D5C" height="6" style="stroke:#C82930;stroke-width:1;" width="6" x="17" y="540.4747"/><text fill="#000000" font-family="sans-serif" font-size="14" lengthAdjust="spacing" textLength="411.6807" x="29" y="546.8214">DrawText(position:Vector3, text:string, color:Color4) : void</text><polygon fill="#FFFF44" points="20,554.7716,24,558.7716,20,562.7716,16,558.7716" style="stroke:#B38D22;stroke-width:1;"/><text fill="#000000" font-family="sans-serif" font-size="14" lengthAdjust="spacing" textLength="284.4434" x="29" y="563.1182">&#171;override&#187; OnResize(e:EventArgs) : void</text><polygon fill="#FFFF44" points="20,571.0684,24,575.0684,20,579.0684,16,575.0684" style="stroke:#B38D22;stroke-width:1;"/><text fill="#000000" font-family="sans-serif" font-size="14" lengthAdjust="spacing" textLength="378.9365" x="29" y="579.4151">&#171;override&#187; OnUpdateFrame(e:FrameEventArgs) : void</text></g><!--class LetterU--><g class="entity" data-entity="LetterU" data-source-line="20" data-uid="ent0003" id="entity_LetterU"><rect fill="#F1F1F1" height="194.6719" rx="2.5" ry="2.5" style="stroke:#181818;stroke-width:0.5;" width="241.7627" x="516.96" y="7"/><ellipse cx="607.5874" cy="23" fill="#ADD1B2" rx="11" ry="11" style="stroke:#181818;stroke-width:1;"/><path d="M610.5562,28.6406 Q609.9781,28.9375 609.3374,29.0781 Q608.6968,29.2344 607.9937,29.2344 Q605.4937,29.2344 604.1656,27.5938 Q602.8531,25.9375 602.8531,22.8125 Q602.8531,19.6875 604.1656,18.0313 Q605.4937,16.375 607.9937,16.375 Q608.6968,16.375 609.3374,16.5313 Q609.9937,16.6875 610.5562,16.9844 L610.5562,19.7031 Q609.9312,19.125 609.3374,18.8594 Q608.7437,18.5781 608.1187,18.5781 Q606.7749,18.5781 606.0874,19.6563 Q605.3999,20.7188 605.3999,22.8125 Q605.3999,24.9063 606.0874,25.9844 Q606.7749,27.0469 608.1187,27.0469 Q608.7437,27.0469 609.3374,26.7813 Q609.9312,26.5 610.5562,25.9219 L610.5562,28.6406 Z " fill="#000000"/><text fill="#000000" font-family="sans-serif" font-size="14" lengthAdjust="spacing" textLength="52.0078" x="628.0874" y="27.8467">LetterU</text><line style="stroke:#181818;stroke-width:0.5;" x1="517.96" x2="757.7227" y1="39" y2="39"/><ellipse cx="527.96" cy="52.6484" fill="none" rx="3" ry="3" style="stroke:#038048;stroke-width:1;"/><text fill="#000000" font-family="sans-serif" font-size="14" lengthAdjust="spacing" textLength="201.3867" x="536.96" y="55.9951">RotationX : float &#171;get&#187; &#171;set&#187;</text><ellipse cx="527.96" cy="68.9453" fill="none" rx="3" ry="3" style="stroke:#038048;stroke-width:1;"/><text fill="#000000" font-family="sans-serif" font-size="14" lengthAdjust="spacing" textLength="200.3477" x="536.96" y="72.292">RotationY : float &#171;get&#187; &#171;set&#187;</text><ellipse cx="527.96" cy="85.2422" fill="none" rx="3" ry="3" style="stroke:#038048;stroke-width:1;"/><text fill="#000000" font-family="sans-serif" font-size="14" lengthAdjust="spacing" textLength="201.3867" x="536.96" y="88.5889">RotationZ : float &#171;get&#187; &#171;set&#187;</text><rect fill="none" height="6" style="stroke:#C82930;stroke-width:1;" width="6" x="524.96" y="98.5391"/><text fill="#000000" font-family="sans-serif" font-size="14" lengthAdjust="spacing" textLength="159.0244" x="536.96" y="104.8857">thickness : float = 0.2f</text><rect fill="none" height="6" style="stroke:#C82930;stroke-width:1;" width="6" x="524.96" y="114.8359"/><text fill="#000000" font-family="sans-serif" font-size="14" lengthAdjust="spacing" textLength="131.4824" x="536.96" y="121.1826">width : float = 1.0f</text><rect fill="none" height="6" style="stroke:#C82930;stroke-width:1;" width="6" x="524.96" y="131.1328"/><text fill="#000000" font-family="sans-serif" font-size="14" lengthAdjust="spacing" textLength="137.5186" x="536.96" y="137.4795">height : float = 1.5f</text><rect fill="none" height="6" style="stroke:#C82930;stroke-width:1;" width="6" x="524.96" y="147.4297"/><text fill="#000000" font-family="sans-serif" font-size="14" lengthAdjust="spacing" textLength="133.6426" x="536.96" y="153.7764">depth : float = 0.4f</text><line style="stroke:#181818;stroke-width:0.5;" x1="517.96" x2="757.7227" y1="161.0781" y2="161.0781"/><ellipse cx="527.96" cy="174.7266" fill="#84BE84" rx="3" ry="3" style="stroke:#038048;stroke-width:1;"/><text fill="#000000" font-family="sans-serif" font-size="14" lengthAdjust="spacing" textLength="215.7627" x="536.96" y="178.0732">LetterU(initialPosition:Vector3)</text><ellipse cx="527.96" cy="191.0234" fill="#84BE84" rx="3" ry="3" style="stroke:#038048;stroke-width:1;"/><text fill="#000000" font-family="sans-serif" font-size="14" lengthAdjust="spacing" textLength="90.7334" x="536.96" y="194.3701">Draw() : void</text></g><!--class Program--><g class="entity" data-entity="Program" data-source-line="31" data-uid="ent0004" id="entity_Program"><rect fill="#F1F1F1" height="64.2969" rx="2.5" ry="2.5" style="stroke:#181818;stroke-width:0.5;" width="199.9336" x="793.87" y="72.19"/><ellipse cx="859.7753" cy="88.19" fill="#ADD1B2" rx="11" ry="11" style="stroke:#181818;stroke-width:1;"/><path d="M862.744,93.8306 Q862.1659,94.1275 861.5253,94.2681 Q860.8846,94.4244 860.1815,94.4244 Q857.6815,94.4244 856.3534,92.7838 Q855.0409,91.1275 855.0409,88.0025 Q855.0409,84.8775 856.3534,83.2213 Q857.6815,81.565 860.1815,81.565 Q860.8846,81.565 861.5253,81.7213 Q862.1815,81.8775 862.744,82.1744 L862.744,84.8931 Q862.119,84.315 861.5253,84.0494 Q860.9315,83.7681 860.3065,83.7681 Q858.9628,83.7681 858.2753,84.8463 Q857.5878,85.9088 857.5878,88.0025 Q857.5878,90.0963 858.2753,91.1744 Q858.9628,92.2369 860.3065,92.2369 Q860.9315,92.2369 861.5253,91.9713 Q862.119,91.69 862.744,91.1119 L862.744,93.8306 Z " fill="#000000"/><text fill="#000000" font-family="sans-serif" font-size="14" lengthAdjust="spacing" textLength="59.623" x="880.2753" y="93.0367">Program</text><line style="stroke:#181818;stroke-width:0.5;" x1="794.87" x2="992.8036" y1="104.19" y2="104.19"/><line style="stroke:#181818;stroke-width:0.5;" x1="794.87" x2="992.8036" y1="112.19" y2="112.19"/><rect fill="#F24D5C" height="6" style="stroke:#C82930;stroke-width:1;" width="6" x="801.87" y="122.8384"/><text fill="#000000" font-family="sans-serif" font-size="14" lengthAdjust="spacing" text-decoration="underline" textLength="173.9336" x="813.87" y="129.1851">Main(args:string[]) : void</text></g><!--class List`1--><g class="entity" data-entity="List`1" data-source-line="34" data-uid="ent0005" id="entity_List`1"><rect fill="#F1F1F1" height="48" rx="2.5" ry="2.5" style="stroke:#181818;stroke-width:0.5;" width="83.71" x="113.99" y="646.72"/><ellipse cx="128.99" cy="662.72" fill="#ADD1B2" rx="11" ry="11" style="stroke:#181818;stroke-width:1;"/><path d="M131.9588,668.3606 Q131.3806,668.6575 130.74,668.7981 Q130.0994,668.9544 129.3963,668.9544 Q126.8963,668.9544 125.5681,667.3138 Q124.2556,665.6575 124.2556,662.5325 Q124.2556,659.4075 125.5681,657.7513 Q126.8963,656.095 129.3963,656.095 Q130.0994,656.095 130.74,656.2513 Q131.3963,656.4075 131.9588,656.7044 L131.9588,659.4231 Q131.3338,658.845 130.74,658.5794 Q130.1463,658.2981 129.5213,658.2981 Q128.1775,658.2981 127.49,659.3763 Q126.8025,660.4388 126.8025,662.5325 Q126.8025,664.6263 127.49,665.7044 Q128.1775,666.7669 129.5213,666.7669 Q130.1463,666.7669 130.74,666.5013 Q131.3338,666.22 131.9588,665.6419 L131.9588,668.3606 Z " fill="#000000"/><text fill="#000000" font-family="sans-serif" font-size="14" lengthAdjust="spacing" textLength="40.3799" x="142.99" y="667.5667">List`1</text><rect fill="#FFFFFF" height="15.9688" style="stroke:#181818;stroke-width:1;stroke-dasharray:2.0,2.0;" width="9.3301" x="191.3699" y="643.72"/><text fill="#000000" font-family="sans-serif" font-size="12" font-style="italic" lengthAdjust="spacing" textLength="7.3301" x="192.3699" y="655.8587">T</text><line style="stroke:#181818;stroke-width:0.5;" x1="114.99" x2="196.7" y1="678.72" y2="678.72"/><line style="stroke:#181818;stroke-width:0.5;" x1="114.99" x2="196.7" y1="686.72" y2="686.72"/></g><!--class GameWindow--><g class="entity" data-entity="GameWindow" data-source-line="36" data-uid="ent0006" id="entity_GameWindow"><rect fill="#F1F1F1" height="48" rx="2.5" ry="2.5" style="stroke:#181818;stroke-width:0.5;" width="129.1865" x="163.25" y="80.34"/><ellipse cx="178.25" cy="96.34" fill="#ADD1B2" rx="11" ry="11" style="stroke:#181818;stroke-width:1;"/><path d="M181.2188,101.9806 Q180.6406,102.2775 180,102.4181 Q179.3594,102.5744 178.6563,102.5744 Q176.1563,102.5744 174.8281,100.9338 Q173.5156,99.2775 173.5156,96.1525 Q173.5156,93.0275 174.8281,91.3713 Q176.1563,89.715 178.6563,89.715 Q179.3594,89.715 180,89.8713 Q180.6563,90.0275 181.2188,90.3244 L181.2188,93.0431 Q180.5938,92.465 180,92.1994 Q179.4063,91.9181 178.7813,91.9181 Q177.4375,91.9181 176.75,92.9963 Q176.0625,94.0588 176.0625,96.1525 Q176.0625,98.2463 176.75,99.3244 Q177.4375,100.3869 178.7813,100.3869 Q179.4063,100.3869 180,100.1213 Q180.5938,99.84 181.2188,99.2619 L181.2188,101.9806 Z " fill="#000000"/><text fill="#000000" font-family="sans-serif" font-size="14" lengthAdjust="spacing" textLength="97.1865" x="192.25" y="101.1867">GameWindow</text><line style="stroke:#181818;stroke-width:0.5;" x1="164.25" x2="291.4365" y1="112.34" y2="112.34"/><line style="stroke:#181818;stroke-width:0.5;" x1="164.25" x2="291.4365" y1="120.34" y2="120.34"/></g><!--class Color4--><g class="entity" data-entity="Color4" data-source-line="38" data-uid="ent0009" id="entity_Color4"><rect fill="#F1F1F1" height="48" rx="2.5" ry="2.5" style="stroke:#181818;stroke-width:0.5;" width="77.459" x="482.11" y="400.2"/><ellipse cx="497.11" cy="416.2" fill="#ADD1B2" rx="11" ry="11" style="stroke:#181818;stroke-width:1;"/><path d="M500.0788,421.8406 Q499.5006,422.1375 498.86,422.2781 Q498.2194,422.4344 497.5163,422.4344 Q495.0163,422.4344 493.6881,420.7938 Q492.3756,419.1375 492.3756,416.0125 Q492.3756,412.8875 493.6881,411.2313 Q495.0163,409.575 497.5163,409.575 Q498.2194,409.575 498.86,409.7313 Q499.5163,409.8875 500.0788,410.1844 L500.0788,412.9031 Q499.4538,412.325 498.86,412.0594 Q498.2663,411.7781 497.6413,411.7781 Q496.2975,411.7781 495.61,412.8563 Q494.9225,413.9188 494.9225,416.0125 Q494.9225,418.1063 495.61,419.1844 Q496.2975,420.2469 497.6413,420.2469 Q498.2663,420.2469 498.86,419.9813 Q499.4538,419.7 500.0788,419.1219 L500.0788,421.8406 Z " fill="#000000"/><text fill="#000000" font-family="sans-serif" font-size="14" lengthAdjust="spacing" textLength="45.459" x="511.11" y="421.0467">Color4</text><line style="stroke:#181818;stroke-width:0.5;" x1="483.11" x2="558.569" y1="432.2" y2="432.2"/><line style="stroke:#181818;stroke-width:0.5;" x1="483.11" x2="558.569" y1="440.2" y2="440.2"/></g><!--class KeyboardState--><g class="entity" data-entity="KeyboardState" data-source-line="40" data-uid="ent0012" id="entity_KeyboardState"><rect fill="#F1F1F1" height="48" rx="2.5" ry="2.5" style="stroke:#181818;stroke-width:0.5;" width="135.8105" x="232.94" y="646.72"/><ellipse cx="247.94" cy="662.72" fill="#ADD1B2" rx="11" ry="11" style="stroke:#181818;stroke-width:1;"/><path d="M250.9088,668.3606 Q250.3306,668.6575 249.69,668.7981 Q249.0494,668.9544 248.3463,668.9544 Q245.8463,668.9544 244.5181,667.3138 Q243.2056,665.6575 243.2056,662.5325 Q243.2056,659.4075 244.5181,657.7513 Q245.8463,656.095 248.3463,656.095 Q249.0494,656.095 249.69,656.2513 Q250.3463,656.4075 250.9088,656.7044 L250.9088,659.4231 Q250.2838,658.845 249.69,658.5794 Q249.0963,658.2981 248.4713,658.2981 Q247.1275,658.2981 246.44,659.3763 Q245.7525,660.4388 245.7525,662.5325 Q245.7525,664.6263 246.44,665.7044 Q247.1275,666.7669 248.4713,666.7669 Q249.0963,666.7669 249.69,666.5013 Q250.2838,666.22 250.9088,665.6419 L250.9088,668.3606 Z " fill="#000000"/><text fill="#000000" font-family="sans-serif" font-size="14" lengthAdjust="spacing" textLength="103.8105" x="261.94" y="667.5667">KeyboardState</text><line style="stroke:#181818;stroke-width:0.5;" x1="233.94" x2="367.7505" y1="678.72" y2="678.72"/><line style="stroke:#181818;stroke-width:0.5;" x1="233.94" x2="367.7505" y1="686.72" y2="686.72"/></g><!--class Vector3--><g class="entity" data-entity="Vector3" data-source-line="41" data-uid="ent0014" id="entity_Vector3"><rect fill="#F1F1F1" height="48" rx="2.5" ry="2.5" style="stroke:#181818;stroke-width:0.5;" width="86.6055" x="594.54" y="400.2"/><ellipse cx="609.54" cy="416.2" fill="#ADD1B2" rx="11" ry="11" style="stroke:#181818;stroke-width:1;"/><path d="M612.5088,421.8406 Q611.9306,422.1375 611.29,422.2781 Q610.6494,422.4344 609.9463,422.4344 Q607.4463,422.4344 606.1181,420.7938 Q604.8056,419.1375 604.8056,416.0125 Q604.8056,412.8875 606.1181,411.2313 Q607.4463,409.575 609.9463,409.575 Q610.6494,409.575 611.29,409.7313 Q611.9463,409.8875 612.5088,410.1844 L612.5088,412.9031 Q611.8838,412.325 611.29,412.0594 Q610.6963,411.7781 610.0713,411.7781 Q608.7275,411.7781 608.04,412.8563 Q607.3525,413.9188 607.3525,416.0125 Q607.3525,418.1063 608.04,419.1844 Q608.7275,420.2469 610.0713,420.2469 Q610.6963,420.2469 611.29,419.9813 Q611.8838,419.7 612.5088,419.1219 L612.5088,421.8406 Z " fill="#000000"/><text fill="#000000" font-family="sans-serif" font-size="14" lengthAdjust="spacing" textLength="54.6055" x="623.54" y="421.0467">Vector3</text><line style="stroke:#181818;stroke-width:0.5;" x1="595.54" x2="680.1455" y1="432.2" y2="432.2"/><line style="stroke:#181818;stroke-width:0.5;" x1="595.54" x2="680.1455" y1="440.2" y2="440.2"/></g><!--reverse link GameWindow to Game--><g class="link" data-entity-1="GameWindow" data-entity-2="Game" data-source-line="36" data-uid="lnk7" id="link_GameWindow_Game"><path codeLine="36" d="M227.84,146.71 C227.84,175.6 227.84,209.36 227.84,261.52" fill="none" id="GameWindow-backto-Game" style="stroke:#181818;stroke-width:1;"/><polygon fill="none" points="227.84,128.71,221.84,146.71,233.84,146.71,227.84,128.71" style="stroke:#181818;stroke-width:1;"/></g><!--link Game to List`1--><g class="link" data-entity-1="Game" data-entity-2="List`1" data-source-line="37" data-uid="lnk8" id="link_Game_List`1"><path codeLine="37" d="M180.22,586.94 C173.36,610.2 168.8336,625.584 164.3936,640.674" fill="none" id="Game-to-List`1" style="stroke:#181818;stroke-width:1;"/><polygon fill="#181818" points="162.7,646.43,169.0778,638.9251,164.1113,641.6333,161.4031,636.6669,162.7,646.43" style="stroke:#181818;stroke-width:1;"/><text fill="#000000" font-family="sans-serif" font-size="13" lengthAdjust="spacing" textLength="111.998" x="39.9644" y="635.7643">letters&lt;LetterU&gt;</text></g><!--link Game to Color4--><g class="link" data-entity-1="Game" data-entity-2="Color4" data-source-line="38" data-uid="lnk10" id="link_Game_Color4"><path codeLine="38" d="M456.2732,508.4494 C475.7832,492.3394 482.6968,482.3723 502.2168,453.2823" fill="none" id="Game-Color4" style="stroke:#181818;stroke-width:1;"/><polygon fill="none" points="447.02,516.09,454.1935,515.3541,456.2732,508.4494,449.0997,509.1853,447.02,516.09" style="stroke:#181818;stroke-width:1;"/><polygon fill="#181818" points="505.56,448.3,497.2237,453.5446,502.774,452.4519,503.8667,458.0022,505.56,448.3" style="stroke:#181818;stroke-width:1;"/><text fill="#000000" font-family="sans-serif" font-size="13" lengthAdjust="spacing" textLength="111.1157" x="515.0642" y="468.2702">backgroundColor</text></g><!--link Game to Color4--><g class="link" data-entity-1="Game" data-entity-2="Color4" data-source-line="39" data-uid="lnk11" id="link_Game_Color4"><path codeLine="39" d="M456.2732,339.9406 C475.7832,356.0506 482.696,366.0283 502.216,395.1083" fill="none" id="Game-Color4-1" style="stroke:#181818;stroke-width:1;"/><polygon fill="none" points="447.02,332.3,449.0997,339.2047,456.2732,339.9406,454.1935,333.0359,447.02,332.3" style="stroke:#181818;stroke-width:1;"/><polygon fill="#181818" points="505.56,400.09,503.8652,390.3881,502.7733,395.9386,497.2228,394.8467,505.56,400.09" style="stroke:#181818;stroke-width:1;"/><text fill="#000000" font-family="sans-serif" font-size="13" lengthAdjust="spacing" textLength="57.4019" x="445.6801" y="388.9524">lineColor</text></g><!--link Game to KeyboardState--><g class="link" data-entity-1="Game" data-entity-2="KeyboardState" data-source-line="40" data-uid="lnk13" id="link_Game_KeyboardState"><path codeLine="40" d="M276.13,586.94 C283.07,610.2 287.6619,625.5913 292.1719,640.6813" fill="none" id="Game-to-KeyboardState" style="stroke:#181818;stroke-width:1;"/><polygon fill="#181818" points="293.89,646.43,295.1453,636.6615,292.4582,641.6394,287.4803,638.9523,293.89,646.43" style="stroke:#181818;stroke-width:1;"/><text fill="#000000" font-family="sans-serif" font-size="13" lengthAdjust="spacing" textLength="114.4927" x="199.6362" y="635.7026">previousKeyState</text></g><!--link LetterU to Vector3--><g class="link" data-entity-1="LetterU" data-entity-2="Vector3" data-source-line="41" data-uid="lnk15" id="link_LetterU_Vector3"><path codeLine="41" d="M637.84,202 C637.84,271.04 637.84,352.7 637.84,393.86" fill="none" id="LetterU-to-Vector3" style="stroke:#181818;stroke-width:1;"/><polygon fill="#181818" points="637.84,399.86,641.84,390.86,637.84,394.86,633.84,390.86,637.84,399.86" style="stroke:#181818;stroke-width:1;"/><text fill="#000000" font-family="sans-serif" font-size="13" lengthAdjust="spacing" textLength="51.0796" x="580.6334" y="389.1821">Position</text></g><!--SRC=[ZPDVRzCm5CNV-ockmakgBLKBuoKAaIOO4wA8QNyP20atlasiUNPaksbXzBlFTfsnDX5T7vh4z-VuddDF2awqXbDoZ_0m0FjBW1I6DJX5Or1z4XHNa08J1jx1E11PLaYXJPx3lMpmeaQabfbpIJmrcimxe9A662R5BZmPlMrXNSdbyGgrhSwavBPer0AV5KyLe_-ASy9rM-LCu0sZfkf_CranVHuQ-BRLwRWFkTsFd0WouzZRpO5tCrwwTbBhso5KoChAREuDCnnJRHGJvT3phwnBraLbnQ4rwgkOIa9ZJ4yQ5EPObNfeJsaae_tqETeHgO_AdOcfl_RlJE238jxWk6VTUTktVeah4zTICwSwlSR2IFN6oh3BGSKX599BbRvt_qVxcjNi3xvSt5LDYS4zujQ3meTuazYhaEC3w4uyoqfqOSmoxQuxtEqBkU__vH8m5Ilk16gz5QFNROoMdPm-9MmJbFuCKwotjer7H_FGM10UCs6dHFZPphI60NFZZ3kkdIbPMb-3Qm_QQIpMzi0lX8cOMAF3d7_yxEoDfaoRNvCekypj_lN01V-62IgNaFrD4lyX-4L8aXmYxllKMUWtZvvUi86aWsQak2kLN0Zg0nN19bVF2FUnzzJy4RN2Xic5_eo_BwmIZC3UpIHHr3yEsenuk3KgWk3K8m00]--></g></svg>